<svg xmlns="http://www.w3.org/2000/svg" width="143.274" height="22.149" viewBox="0 0 143.274 22.149">
  <g id="blackrose_logo_dark" transform="translate(-803.183 -1215.496)">
    <g id="Group_13" data-name="Group 13" transform="translate(803.183 1215.496)">
      <g id="Group_9" data-name="Group 9" transform="translate(20.747 0.855)">
        <path id="Path_1" data-name="Path 1" d="M896.844,1237.047V1216.91h7.709a8.5,8.5,0,0,1,3.633.682,4.921,4.921,0,0,1,2.173,1.863,5.021,5.021,0,0,1,.723,2.676,4.333,4.333,0,0,1-.472,2.1,3.94,3.94,0,0,1-1.268,1.411,5.355,5.355,0,0,1-1.78.778v.2a4.429,4.429,0,0,1,2.06.653,4.615,4.615,0,0,1,1.617,1.677,5.115,5.115,0,0,1,.629,2.616,5.288,5.288,0,0,1-.757,2.807,5.161,5.161,0,0,1-2.281,1.963,9,9,0,0,1-3.835.718Zm3.648-3.05h3.923a4.34,4.34,0,0,0,2.866-.762,2.473,2.473,0,0,0,.88-1.96,3.035,3.035,0,0,0-.442-1.617,3.082,3.082,0,0,0-1.259-1.141,4.218,4.218,0,0,0-1.947-.419h-4.021Zm0-8.524H904.1a4.02,4.02,0,0,0,1.7-.35,2.848,2.848,0,0,0,1.195-.992,2.656,2.656,0,0,0,.437-1.528,2.507,2.507,0,0,0-.821-1.927,3.473,3.473,0,0,0-2.433-.758h-3.687Z" transform="translate(-896.844 -1216.91)"/>
        <g id="Group_1" data-name="Group 1" transform="translate(16.084)">
          <rect id="Rectangle_2" data-name="Rectangle 2" width="3.559" height="20.137" transform="translate(0)"/>
        </g>
        <g id="Group_2" data-name="Group 2" transform="translate(20.837 4.838)">
          <path id="Path_2" data-name="Path 2" d="M1008.965,1254.353a6.22,6.22,0,0,1-2.581-.516,4.13,4.13,0,0,1-1.81-1.528,4.46,4.46,0,0,1-.664-2.5,4.257,4.257,0,0,1,.472-2.113,3.644,3.644,0,0,1,1.289-1.338,6.609,6.609,0,0,1,1.843-.762,15.523,15.523,0,0,1,2.129-.379q1.329-.136,2.153-.25a3.1,3.1,0,0,0,1.205-.354.824.824,0,0,0,.379-.751v-.06a2.227,2.227,0,0,0-.66-1.721,2.694,2.694,0,0,0-1.9-.609,3.38,3.38,0,0,0-2.071.571,2.818,2.818,0,0,0-1.028,1.347l-3.323-.472a5.324,5.324,0,0,1,1.3-2.306,5.717,5.717,0,0,1,2.213-1.4,8.563,8.563,0,0,1,2.891-.465,9.424,9.424,0,0,1,2.173.255,6.182,6.182,0,0,1,1.976.839,4.36,4.36,0,0,1,1.44,1.588,5.205,5.205,0,0,1,.547,2.507v10.11h-3.422v-2.076h-.117a4.307,4.307,0,0,1-2.375,2.049A5.874,5.874,0,0,1,1008.965,1254.353Zm.924-2.616a3.832,3.832,0,0,0,1.858-.427,3.129,3.129,0,0,0,1.214-1.134,2.934,2.934,0,0,0,.427-1.544v-1.781a1.652,1.652,0,0,1-.565.257,8.906,8.906,0,0,1-.891.206c-.328.058-.651.111-.972.157s-.6.084-.837.117a6.266,6.266,0,0,0-1.424.354,2.384,2.384,0,0,0-.992.682,1.9,1.9,0,0,0,.352,2.612A3.124,3.124,0,0,0,1009.889,1251.737Z" transform="translate(-1003.91 -1238.75)"/>
        </g>
        <g id="Group_3" data-name="Group 3" transform="translate(34.96 4.838)">
          <path id="Path_3" data-name="Path 3" d="M1081.907,1254.344a7.263,7.263,0,0,1-3.879-.995,6.567,6.567,0,0,1-2.488-2.747,9.82,9.82,0,0,1,.013-8.114,6.633,6.633,0,0,1,2.5-2.751,7.192,7.192,0,0,1,3.83-.988,7.509,7.509,0,0,1,3.258.673,5.505,5.505,0,0,1,3.232,4.754h-3.4a3.3,3.3,0,0,0-.979-1.825,2.871,2.871,0,0,0-2.06-.731,3.228,3.228,0,0,0-1.916.585,3.777,3.777,0,0,0-1.285,1.677,6.772,6.772,0,0,0-.456,2.614,7,7,0,0,0,.452,2.651,3.82,3.82,0,0,0,1.274,1.7,3.455,3.455,0,0,0,3.343.295,2.777,2.777,0,0,0,1.048-.87,3.388,3.388,0,0,0,.58-1.387h3.4a5.938,5.938,0,0,1-.944,2.838,5.566,5.566,0,0,1-2.224,1.927A7.4,7.4,0,0,1,1081.907,1254.344Z" transform="translate(-1074.67 -1238.75)"/>
        </g>
        <g id="Group_4" data-name="Group 4" transform="translate(49.737)">
          <path id="Path_4" data-name="Path 4" d="M1150.625,1232.307l-.011-4.3h.572l5.427-6.067h4.16l-6.678,7.434h-.735Zm-3.245,4.74V1216.91h3.56v20.137Zm9.478,0-4.917-6.873,2.4-2.508,6.776,9.381Z" transform="translate(-1147.38 -1216.91)"/>
        </g>
        <g id="Group_5" data-name="Group 5" transform="translate(64.735)">
          <path id="Path_5" data-name="Path 5" d="M1216.09,1237.047V1216.91h7.551a8.495,8.495,0,0,1,3.9.806,5.546,5.546,0,0,1,2.39,2.255,6.812,6.812,0,0,1,.811,3.378,6.6,6.6,0,0,1-.82,3.358,5.452,5.452,0,0,1-2.414,2.193,8.947,8.947,0,0,1-3.914.771h-5.378v-3.028h4.886a5.573,5.573,0,0,0,2.222-.379,2.642,2.642,0,0,0,1.285-1.11,3.614,3.614,0,0,0,.417-1.805,3.717,3.717,0,0,0-.423-1.834,2.728,2.728,0,0,0-1.287-1.161,5.4,5.4,0,0,0-2.233-.4h-3.343v17.089Zm10.4-9.126,4.984,9.126h-4.071l-4.9-9.126Z" transform="translate(-1216.09 -1216.91)"/>
        </g>
        <g id="Group_6" data-name="Group 6" transform="translate(79.92 4.838)">
          <path id="Path_6" data-name="Path 6" d="M1298.877,1254.344a7.308,7.308,0,0,1-3.834-.975,6.59,6.59,0,0,1-2.512-2.722,9.864,9.864,0,0,1,0-8.191,6.566,6.566,0,0,1,2.512-2.733,8.046,8.046,0,0,1,7.669,0,6.538,6.538,0,0,1,2.512,2.733,9.864,9.864,0,0,1,0,8.191,6.561,6.561,0,0,1-2.512,2.722A7.308,7.308,0,0,1,1298.877,1254.344Zm.02-2.853a3.052,3.052,0,0,0,2.007-.662,3.976,3.976,0,0,0,1.2-1.785,8.064,8.064,0,0,0,0-5.008,4.012,4.012,0,0,0-1.2-1.8,3.043,3.043,0,0,0-2.007-.667,3.1,3.1,0,0,0-2.04.667,4.005,4.005,0,0,0-1.209,1.8,8.062,8.062,0,0,0,0,5.008,3.969,3.969,0,0,0,1.209,1.785A3.111,3.111,0,0,0,1298.9,1251.491Z" transform="translate(-1291.64 -1238.75)"/>
        </g>
        <g id="Group_7" data-name="Group 7" transform="translate(94.87 4.838)">
          <path id="Path_7" data-name="Path 7" d="M1378.734,1242.937l-3.245.354a2.628,2.628,0,0,0-.476-.924,2.448,2.448,0,0,0-.908-.7,3.3,3.3,0,0,0-1.4-.266,3.368,3.368,0,0,0-1.863.483,1.416,1.416,0,0,0-.742,1.247,1.3,1.3,0,0,0,.487,1.072,4.07,4.07,0,0,0,1.646.678l2.576.552A6.557,6.557,0,0,1,1378,1246.9a3.5,3.5,0,0,1,1.057,2.627,4.1,4.1,0,0,1-.831,2.512,5.368,5.368,0,0,1-2.277,1.695,8.568,8.568,0,0,1-3.343.611,7.733,7.733,0,0,1-4.463-1.165,4.646,4.646,0,0,1-2.016-3.25l3.471-.334a2.456,2.456,0,0,0,1,1.544,3.507,3.507,0,0,0,2,.521,3.608,3.608,0,0,0,2.04-.521,1.526,1.526,0,0,0,.771-1.289,1.354,1.354,0,0,0-.5-1.072,3.55,3.55,0,0,0-1.54-.649l-2.576-.54a6.094,6.094,0,0,1-3.214-1.528,3.728,3.728,0,0,1-1.032-2.729,3.864,3.864,0,0,1,.762-2.423,4.963,4.963,0,0,1,2.153-1.593,8.38,8.38,0,0,1,3.19-.565,6.905,6.905,0,0,1,4.184,1.13A4.76,4.76,0,0,1,1378.734,1242.937Z" transform="translate(-1366.13 -1238.75)"/>
        </g>
        <g id="Group_8" data-name="Group 8" transform="translate(108.477 4.838)">
          <path id="Path_8" data-name="Path 8" d="M1438.894,1254.344a7.715,7.715,0,0,1-3.919-.95,6.346,6.346,0,0,1-2.532-2.694,9.956,9.956,0,0,1,0-8.211,6.689,6.689,0,0,1,2.494-2.751,7.017,7.017,0,0,1,3.766-.988,7.731,7.731,0,0,1,2.64.448,6.059,6.059,0,0,1,2.2,1.38,6.5,6.5,0,0,1,1.508,2.375,9.584,9.584,0,0,1,.552,3.427v1.092h-12.38v-2.4h8.969a3.865,3.865,0,0,0-.443-1.825,3.238,3.238,0,0,0-1.2-1.263,3.424,3.424,0,0,0-1.794-.463,3.505,3.505,0,0,0-1.918.527,3.674,3.674,0,0,0-1.282,1.375,3.977,3.977,0,0,0-.467,1.863v2.1a4.9,4.9,0,0,0,.483,2.257,3.4,3.4,0,0,0,1.347,1.435,4,4,0,0,0,2.025.5,4.193,4.193,0,0,0,1.407-.222,3.09,3.09,0,0,0,1.092-.653,2.748,2.748,0,0,0,.7-1.072l3.323.374a5.148,5.148,0,0,1-1.194,2.295,5.806,5.806,0,0,1-2.246,1.515A8.541,8.541,0,0,1,1438.894,1254.344Z" transform="translate(-1431.56 -1238.75)"/>
        </g>
      </g>
      <g id="Group_12" data-name="Group 12" transform="translate(0 0)">
        <g id="Group_10" data-name="Group 10" transform="translate(15.231 22.149) rotate(180)">
          <path id="Path_9" data-name="Path 9" d="M0,7.225H0V22.149H0a15.616,15.616,0,0,0,10.757-4.235A14.112,14.112,0,0,0,15.214,7.686,7.386,7.386,0,0,0,7.607,0,7.463,7.463,0,0,0,0,7.225Z" transform="translate(0)" fill="#1d1d1d" fill-rule="evenodd"/>
        </g>
        <g id="Group_11" data-name="Group 11" transform="translate(0.02 0)">
          <path id="Path_10" data-name="Path 10" d="M2865.469,3318.29h0v-14.924h0a15.616,15.616,0,0,1,10.757,4.235,14.113,14.113,0,0,1,4.455,10.227,7.443,7.443,0,0,1-7.607,7.686A7.367,7.367,0,0,1,2865.469,3318.29Z" transform="translate(-2865.469 -3303.366)" fill="rgba(128,128,128,0.79)" fill-rule="evenodd"/>
        </g>
      </g>
    </g>
  </g>
</svg>
